# xmcd
# 
# Track frame offsets:
#     150
#     11247
#     21697
#     34417
#     45380
#     61740
#     77312
#     92475
#     104587
#     122035
#     134790
#     145035
#     157830
#     168320
#     181357
#     192895
#     202720
#     213997
#     225982
# 
# Disc length: 3260
# 
# Revision: 2
# Processed by: cddbd v1.5.2PL0 Copyright (c) Steve Scherf et al.
# Submitted via: BonkEnc v1.0.8
# 
DISCID=f70cba13
DTITLE=ペレス・プラード - ペレス・プラード〈TWIN BEST〉 Disc 2
DYEAR=2001
DGENRE=Latin
TTITLE0=エストレリータ
TTITLE1=ベサメ・ムーチョ
TTITLE2=ソラメンテ・ウナ・ベス
TTITLE3=サント・トーマス
TTITLE4=モア
TTITLE5=ある恋の物語
TTITLE6=ククル・クク・パロマ
TTITLE7=南京豆売り
TTITLE8=ラ・パロマ
TTITLE9=アドロ
TTITLE10=ラ・クンパルシータ
TTITLE11=テキーラ
TTITLE12=フラミンゴ
TTITLE13=アディオス・ムチャーチョス
TTITLE14=ラ・ジョコンダ
TTITLE15=ハバ・ナギラ・モモ
TTITLE16=タクシー運転手のマンボ
TTITLE17=市場のマンボ
TTITLE18=ルピータ
EXTD=
EXTT0=
EXTT1=
EXTT2=
EXTT3=
EXTT4=
EXTT5=
EXTT6=
EXTT7=
EXTT8=
EXTT9=
EXTT10=
EXTT11=
EXTT12=
EXTT13=
EXTT14=
EXTT15=
EXTT16=
EXTT17=
EXTT18=
PLAYORDER=
